<svg width="49" height="49" viewBox="0 0 49 49" fill="none" xmlns="http://www.w3.org/2000/svg">
<path d="M0.579102 24.5648C0.579102 11.31 11.3243 0.564819 24.5791 0.564819C37.8339 0.564819 48.5791 11.31 48.5791 24.5648C48.5791 37.8197 37.8339 48.5648 24.5791 48.5648C11.3243 48.5648 0.579102 37.8197 0.579102 24.5648Z" fill="#DBEAFE"/>
<path d="M27.5791 14.5648H18.5791C18.0487 14.5648 17.54 14.7755 17.1649 15.1506C16.7898 15.5257 16.5791 16.0344 16.5791 16.5648V32.5648C16.5791 33.0953 16.7898 33.604 17.1649 33.979C17.54 34.3541 18.0487 34.5648 18.5791 34.5648H30.5791C31.1095 34.5648 31.6182 34.3541 31.9933 33.979C32.3684 33.604 32.5791 33.0953 32.5791 32.5648V19.5648L27.5791 14.5648Z" stroke="#2563EB" stroke-width="2" stroke-linecap="round" stroke-linejoin="round"/>
<path d="M26.5791 14.5648V18.5648C26.5791 19.0953 26.7898 19.604 27.1649 19.979C27.54 20.3541 28.0487 20.5648 28.5791 20.5648H32.5791" stroke="#2563EB" stroke-width="2" stroke-linecap="round" stroke-linejoin="round"/>
<path d="M22.5791 21.5648H20.5791" stroke="#2563EB" stroke-width="2" stroke-linecap="round" stroke-linejoin="round"/>
<path d="M28.5791 25.5648H20.5791" stroke="#2563EB" stroke-width="2" stroke-linecap="round" stroke-linejoin="round"/>
<path d="M28.5791 29.5648H20.5791" stroke="#2563EB" stroke-width="2" stroke-linecap="round" stroke-linejoin="round"/>
</svg>
