<svg width="49" height="49" viewBox="0 0 49 49" fill="none" xmlns="http://www.w3.org/2000/svg">
<path d="M0.579102 24.5648C0.579102 11.31 11.3243 0.564819 24.5791 0.564819C37.8339 0.564819 48.5791 11.31 48.5791 24.5648C48.5791 37.8197 37.8339 48.5648 24.5791 48.5648C11.3243 48.5648 0.579102 37.8197 0.579102 24.5648Z" fill="#DCFCE7"/>
<path d="M24.5792 17.5648C24.5804 17.1648 24.5015 16.7687 24.3474 16.3996C24.1932 16.0305 23.9668 15.696 23.6814 15.4158C23.3961 15.1355 23.0576 14.9151 22.6858 14.7675C22.3141 14.62 21.9166 14.5483 21.5167 14.5566C21.1168 14.565 20.7226 14.6532 20.3573 14.8161C19.992 14.979 19.663 15.2133 19.3896 15.5052C19.1162 15.7971 18.9039 16.1408 18.7652 16.516C18.6266 16.8911 18.5643 17.2902 18.5822 17.6898C17.9944 17.8409 17.4487 18.1239 16.9864 18.5171C16.5241 18.9104 16.1574 19.4037 15.914 19.9597C15.6706 20.5156 15.5569 21.1197 15.5816 21.7261C15.6062 22.3325 15.7685 22.9254 16.0562 23.4598C15.5504 23.8707 15.1526 24.399 14.8975 24.9987C14.6424 25.5984 14.5377 26.2514 14.5925 26.9008C14.6473 27.5502 14.86 28.1764 15.212 28.7248C15.564 29.2733 16.0446 29.7275 16.6122 30.0478C16.5421 30.59 16.5839 31.1409 16.7351 31.6663C16.8862 32.1918 17.1435 32.6806 17.491 33.1028C17.8384 33.5249 18.2688 33.8713 18.7554 34.1206C19.242 34.3699 19.7746 34.5167 20.3202 34.5521C20.8658 34.5875 21.4128 34.5107 21.9276 34.3264C22.4423 34.1421 22.9138 33.8542 23.3129 33.4806C23.7121 33.1069 24.0304 32.6554 24.2481 32.1539C24.4659 31.6524 24.5786 31.1116 24.5792 30.5648V17.5648Z" stroke="#16A34A" stroke-width="2" stroke-linecap="round" stroke-linejoin="round"/>
<path d="M24.5791 17.5648C24.5779 17.1648 24.6568 16.7687 24.8109 16.3996C24.9651 16.0305 25.1915 15.696 25.4768 15.4158C25.7622 15.1355 26.1007 14.9151 26.4725 14.7675C26.8442 14.62 27.2417 14.5483 27.6416 14.5566C28.0415 14.565 28.4357 14.6532 28.801 14.8161C29.1663 14.979 29.4953 15.2133 29.7687 15.5052C30.0421 15.7971 30.2544 16.1408 30.3931 16.516C30.5317 16.8911 30.594 17.2902 30.5761 17.6898C31.1639 17.8409 31.7096 18.1239 32.1719 18.5171C32.6342 18.9104 33.0009 19.4037 33.2443 19.9597C33.4877 20.5156 33.6014 21.1197 33.5767 21.7261C33.5521 22.3325 33.3898 22.9254 33.1021 23.4598C33.6079 23.8707 34.0057 24.399 34.2608 24.9987C34.5159 25.5984 34.6206 26.2514 34.5658 26.9008C34.5109 27.5502 34.2983 28.1764 33.9463 28.7248C33.5943 29.2733 33.1136 29.7275 32.5461 30.0478C32.6162 30.59 32.5744 31.1409 32.4232 31.6663C32.2721 32.1918 32.0148 32.6806 31.6673 33.1028C31.3198 33.5249 30.8895 33.8713 30.4029 34.1206C29.9163 34.3699 29.3837 34.5167 28.8381 34.5521C28.2925 34.5875 27.7455 34.5107 27.2307 34.3264C26.716 34.1421 26.2445 33.8542 25.8454 33.4806C25.4462 33.1069 25.1279 32.6554 24.9102 32.1539C24.6924 31.6524 24.5797 31.1116 24.5791 30.5648V17.5648Z" stroke="#16A34A" stroke-width="2" stroke-linecap="round" stroke-linejoin="round"/>
<path d="M27.5791 25.5648C26.7395 25.2695 26.0064 24.7318 25.4724 24.0198C24.9384 23.3078 24.6276 22.4535 24.5791 21.5648C24.5306 22.4535 24.2198 23.3078 23.6858 24.0198C23.1518 24.7318 22.4187 25.2695 21.5791 25.5648" stroke="#16A34A" stroke-width="2" stroke-linecap="round" stroke-linejoin="round"/>
<path d="M30.1782 19.0648C30.4202 18.6454 30.5571 18.1736 30.5772 17.6898" stroke="#16A34A" stroke-width="2" stroke-linecap="round" stroke-linejoin="round"/>
<path d="M18.582 17.6898C18.6018 18.1736 18.7384 18.6453 18.98 19.0648" stroke="#16A34A" stroke-width="2" stroke-linecap="round" stroke-linejoin="round"/>
<path d="M16.0562 23.4608C16.2391 23.3118 16.4349 23.1793 16.6412 23.0648" stroke="#16A34A" stroke-width="2" stroke-linecap="round" stroke-linejoin="round"/>
<path d="M32.5171 23.0648C32.7234 23.1793 32.9192 23.3118 33.1021 23.4608" stroke="#16A34A" stroke-width="2" stroke-linecap="round" stroke-linejoin="round"/>
<path d="M18.5791 30.5648C17.8899 30.5652 17.2123 30.3874 16.6121 30.0488" stroke="#16A34A" stroke-width="2" stroke-linecap="round" stroke-linejoin="round"/>
<path d="M32.5461 30.0488C31.9458 30.3874 31.2683 30.5652 30.5791 30.5648" stroke="#16A34A" stroke-width="2" stroke-linecap="round" stroke-linejoin="round"/>
</svg>
