<svg width="49" height="49" viewBox="0 0 49 49" fill="none" xmlns="http://www.w3.org/2000/svg">
<path d="M0.579102 24.5648C0.579102 11.31 11.3243 0.564819 24.5791 0.564819C37.8339 0.564819 48.5791 11.31 48.5791 24.5648C48.5791 37.8197 37.8339 48.5648 24.5791 48.5648C11.3243 48.5648 0.579102 37.8197 0.579102 24.5648Z" fill="#FEE2E2"/>
<path d="M31.5791 33.5648V31.5648C31.5791 30.504 31.1577 29.4865 30.4075 28.7364C29.6574 27.9862 28.64 27.5648 27.5791 27.5648H21.5791C20.5182 27.5648 19.5008 27.9862 18.7507 28.7364C18.0005 29.4865 17.5791 30.504 17.5791 31.5648V33.5648" stroke="#DC2626" stroke-width="2" stroke-linecap="round" stroke-linejoin="round"/>
<path d="M24.5791 23.5648C26.7882 23.5648 28.5791 21.774 28.5791 19.5648C28.5791 17.3557 26.7882 15.5648 24.5791 15.5648C22.37 15.5648 20.5791 17.3557 20.5791 19.5648C20.5791 21.774 22.37 23.5648 24.5791 23.5648Z" stroke="#DC2626" stroke-width="2" stroke-linecap="round" stroke-linejoin="round"/>
</svg>
