<svg width="49" height="49" viewBox="0 0 49 49" fill="none" xmlns="http://www.w3.org/2000/svg">
<path d="M0.579102 24.5648C0.579102 11.31 11.3243 0.564819 24.5791 0.564819C37.8339 0.564819 48.5791 11.31 48.5791 24.5648C48.5791 37.8197 37.8339 48.5648 24.5791 48.5648C11.3243 48.5648 0.579102 37.8197 0.579102 24.5648Z" fill="#FEF3C7"/>
<path d="M32.5791 25.5648C32.5791 30.5648 29.0791 33.0648 24.9191 34.5148C24.7013 34.5887 24.4646 34.5851 24.2491 34.5048C20.0791 33.0648 16.5791 30.5648 16.5791 25.5648V18.5648C16.5791 18.2996 16.6845 18.0453 16.872 17.8577C17.0595 17.6702 17.3139 17.5648 17.5791 17.5648C19.5791 17.5648 22.0791 16.3648 23.8191 14.8448C24.031 14.6638 24.3005 14.5644 24.5791 14.5644C24.8577 14.5644 25.1272 14.6638 25.3391 14.8448C27.0891 16.3748 29.5791 17.5648 31.5791 17.5648C31.8443 17.5648 32.0987 17.6702 32.2862 17.8577C32.4737 18.0453 32.5791 18.2996 32.5791 18.5648V25.5648Z" stroke="#D97706" stroke-width="2" stroke-linecap="round" stroke-linejoin="round"/>
</svg>
