<svg width="48" height="49" viewBox="0 0 48 49" fill="none" xmlns="http://www.w3.org/2000/svg">
<path d="M0 24.5648C0 11.31 10.7452 0.564819 24 0.564819V0.564819C37.2548 0.564819 48 11.31 48 24.5648V24.5648C48 37.8197 37.2548 48.5648 24 48.5648V48.5648C10.7452 48.5648 0 37.8197 0 24.5648V24.5648Z" fill="#009BB6"/>
<path d="M27 14.5648H18C17.4696 14.5648 16.9609 14.7755 16.5858 15.1506C16.2107 15.5257 16 16.0344 16 16.5648V32.5648C16 33.0953 16.2107 33.604 16.5858 33.979C16.9609 34.3541 17.4696 34.5648 18 34.5648H30C30.5304 34.5648 31.0391 34.3541 31.4142 33.979C31.7893 33.604 32 33.0953 32 32.5648V19.5648L27 14.5648Z" stroke="white" stroke-width="1.2" stroke-linecap="round" stroke-linejoin="round"/>
<path d="M26 14.5648V18.5648C26 19.0953 26.2107 19.604 26.5858 19.979C26.9609 20.3541 27.4696 20.5648 28 20.5648H32" stroke="white" stroke-width="1.2" stroke-linecap="round" stroke-linejoin="round"/>
<path d="M22 21.5648H20" stroke="#FECB3F" stroke-width="1.2" stroke-linecap="round" stroke-linejoin="round"/>
<path d="M28 25.5648H20" stroke="#FECB3F" stroke-width="1.2" stroke-linecap="round" stroke-linejoin="round"/>
<path d="M28 29.5648H20" stroke="#FECB3F" stroke-width="1.2" stroke-linecap="round" stroke-linejoin="round"/>
</svg>
