<svg width="24" height="25" viewBox="0 0 24 25" fill="none" xmlns="http://www.w3.org/2000/svg">
<path d="M15 2.56482H6C5.46957 2.56482 4.96086 2.77553 4.58579 3.15061C4.21071 3.52568 4 4.03439 4 4.56482V20.5648C4 21.0953 4.21071 21.604 4.58579 21.979C4.96086 22.3541 5.46957 22.5648 6 22.5648H18C18.5304 22.5648 19.0391 22.3541 19.4142 21.979C19.7893 21.604 20 21.0953 20 20.5648V7.56482L15 2.56482Z" stroke="white" stroke-width="1.2" stroke-linecap="round" stroke-linejoin="round"/>
<path d="M14 2.56482V6.56482C14 7.09525 14.2107 7.60396 14.5858 7.97903C14.9609 8.35411 15.4696 8.56482 16 8.56482H20" stroke="white" stroke-width="1.2" stroke-linecap="round" stroke-linejoin="round"/>
<path d="M10 9.56482H8" stroke="#FECB3F" stroke-width="1.2" stroke-linecap="round" stroke-linejoin="round"/>
<path d="M16 13.5648H8" stroke="#FECB3F" stroke-width="1.2" stroke-linecap="round" stroke-linejoin="round"/>
<path d="M16 17.5648H8" stroke="#FECB3F" stroke-width="1.2" stroke-linecap="round" stroke-linejoin="round"/>
</svg>
