<svg width="48" height="48" viewBox="0 0 48 48" fill="none" xmlns="http://www.w3.org/2000/svg">
<path d="M0 24C0 10.7452 10.7452 0 24 0C37.2548 0 48 10.7452 48 24C48 37.2548 37.2548 48 24 48C10.7452 48 0 37.2548 0 24Z" fill="#009BB6"/>
<path d="M23.9998 17C24.001 16.6 23.9222 16.2039 23.768 15.8348C23.6139 15.4657 23.3874 15.1312 23.1021 14.851C22.8168 14.5707 22.4783 14.3503 22.1065 14.2027C21.7347 14.0552 21.3372 13.9835 20.9373 13.9918C20.5374 14.0002 20.1433 14.0884 19.778 14.2513C19.4127 14.4142 19.0836 14.6485 18.8102 14.9404C18.5368 15.2323 18.3245 15.576 18.1859 15.9512C18.0472 16.3263 17.985 16.7254 18.0028 17.125C17.415 17.2761 16.8693 17.5591 16.4071 17.9523C15.9448 18.3456 15.5781 18.8389 15.3347 19.3949C15.0913 19.9508 14.9776 20.5549 15.0022 21.1613C15.0268 21.7677 15.1891 22.3606 15.4768 22.895C14.971 23.3059 14.5733 23.8342 14.3182 24.4339C14.0631 25.0336 13.9584 25.6866 14.0132 26.336C14.068 26.9854 14.2806 27.6116 14.6326 28.16C14.9846 28.7085 15.4653 29.1627 16.0328 29.483C15.9627 30.0252 16.0046 30.5761 16.1557 31.1015C16.3069 31.627 16.5641 32.1158 16.9116 32.538C17.2591 32.9601 17.6894 33.3065 18.176 33.5558C18.6627 33.8051 19.1952 33.9519 19.7408 33.9873C20.2864 34.0227 20.8335 33.9459 21.3482 33.7616C21.863 33.5773 22.3345 33.2894 22.7336 32.9158C23.1327 32.5421 23.451 32.0906 23.6688 31.5891C23.8866 31.0876 23.9992 30.5468 23.9998 30V17Z" stroke="white" stroke-linecap="round" stroke-linejoin="round"/>
<path d="M24 17C23.9988 16.6 24.0776 16.2039 24.2318 15.8348C24.386 15.4657 24.6124 15.1312 24.8977 14.851C25.1831 14.5707 25.5216 14.3503 25.8934 14.2027C26.2651 14.0552 26.6626 13.9835 27.0625 13.9918C27.4624 14.0002 27.8566 14.0884 28.2219 14.2513C28.5872 14.4142 28.9162 14.6485 29.1896 14.9404C29.463 15.2323 29.6753 15.576 29.814 15.9512C29.9526 16.3263 30.0149 16.7254 29.997 17.125C30.5848 17.2761 31.1305 17.5591 31.5928 17.9523C32.0551 18.3456 32.4218 18.8389 32.6652 19.3949C32.9086 19.9508 33.0223 20.5549 32.9976 21.1613C32.973 21.7677 32.8107 22.3606 32.523 22.895C33.0288 23.3059 33.4266 23.8342 33.6817 24.4339C33.9368 25.0336 34.0415 25.6866 33.9867 26.336C33.9318 26.9854 33.7192 27.6116 33.3672 28.16C33.0152 28.7085 32.5345 29.1627 31.967 29.483C32.0371 30.0252 31.9953 30.5761 31.8441 31.1015C31.693 31.627 31.4357 32.1158 31.0882 32.538C30.7407 32.9601 30.3104 33.3065 29.8238 33.5558C29.3372 33.8051 28.8046 33.9519 28.259 33.9873C27.7134 34.0227 27.1664 33.9459 26.6516 33.7616C26.1369 33.5773 25.6654 33.2894 25.2663 32.9158C24.8671 32.5421 24.5488 32.0906 24.331 31.5891C24.1133 31.0876 24.0006 30.5468 24 30V17Z" stroke="white" stroke-linecap="round" stroke-linejoin="round"/>
<path d="M27 25C26.1604 24.7047 25.4273 24.167 24.8933 23.455C24.3593 22.743 24.0485 21.8887 24 21C23.9515 21.8887 23.6407 22.743 23.1067 23.455C22.5727 24.167 21.8396 24.7047 21 25" stroke="#FFC900" stroke-linecap="round" stroke-linejoin="round"/>
<path d="M29.5986 18.5C29.8407 18.0806 29.9776 17.6088 29.9976 17.125" stroke="white" stroke-linecap="round" stroke-linejoin="round"/>
<path d="M18.0029 17.125C18.0227 17.6087 18.1593 18.0805 18.4009 18.5" stroke="white" stroke-linecap="round" stroke-linejoin="round"/>
<path d="M15.4766 22.896C15.6595 22.747 15.8553 22.6145 16.0616 22.5" stroke="white" stroke-linecap="round" stroke-linejoin="round"/>
<path d="M31.9385 22.5C32.1448 22.6145 32.3405 22.747 32.5235 22.896" stroke="white" stroke-linecap="round" stroke-linejoin="round"/>
<path d="M18.0002 30C17.311 30.0003 16.6335 29.8226 16.0332 29.484" stroke="white" stroke-linecap="round" stroke-linejoin="round"/>
<path d="M31.967 29.484C31.3667 29.8226 30.6892 30.0003 30 30" stroke="white" stroke-linecap="round" stroke-linejoin="round"/>
</svg>
