<svg width="24" height="24" viewBox="0 0 24 24" fill="none" xmlns="http://www.w3.org/2000/svg">
<path d="M11.9998 5C12.001 4.60004 11.9222 4.20387 11.768 3.8348C11.6139 3.46574 11.3874 3.13123 11.1021 2.85095C10.8168 2.57067 10.4783 2.35028 10.1065 2.20274C9.73472 2.05519 9.33721 1.98348 8.93733 1.99182C8.53744 2.00015 8.14326 2.08837 7.77797 2.25127C7.41268 2.41418 7.08365 2.64848 6.81023 2.94041C6.53682 3.23234 6.32454 3.57599 6.18588 3.95116C6.04722 4.32632 5.98499 4.72543 6.00283 5.125C5.41503 5.27614 4.86933 5.55905 4.40706 5.95232C3.94479 6.34558 3.57807 6.83888 3.33467 7.39485C3.09128 7.95083 2.97759 8.5549 3.00222 9.16132C3.02685 9.76774 3.18915 10.3606 3.47683 10.895C2.97101 11.3059 2.57326 11.8342 2.31817 12.4339C2.06308 13.0336 1.95839 13.6866 2.01319 14.336C2.068 14.9854 2.28065 15.6116 2.63264 16.16C2.98462 16.7085 3.46529 17.1627 4.03283 17.483C3.96275 18.0252 4.00457 18.5761 4.15572 19.1015C4.30686 19.627 4.56413 20.1158 4.91161 20.538C5.2591 20.9601 5.68944 21.3065 6.17605 21.5558C6.66266 21.8051 7.19521 21.9519 7.74081 21.9873C8.28641 22.0227 8.83347 21.9459 9.34822 21.7616C9.86296 21.5773 10.3345 21.2894 10.7336 20.9158C11.1327 20.5421 11.451 20.0906 11.6688 19.5891C11.8866 19.0876 11.9992 18.5468 11.9998 18V5Z" stroke="white" stroke-linecap="round" stroke-linejoin="round"/>
<path d="M12 5C11.9988 4.60004 12.0776 4.20387 12.2318 3.8348C12.386 3.46574 12.6124 3.13123 12.8977 2.85095C13.1831 2.57067 13.5216 2.35028 13.8934 2.20274C14.2651 2.05519 14.6626 1.98348 15.0625 1.99182C15.4624 2.00015 15.8566 2.08837 16.2219 2.25127C16.5872 2.41418 16.9162 2.64848 17.1896 2.94041C17.463 3.23234 17.6753 3.57599 17.814 3.95116C17.9526 4.32632 18.0149 4.72543 17.997 5.125C18.5848 5.27614 19.1305 5.55905 19.5928 5.95232C20.0551 6.34558 20.4218 6.83888 20.6652 7.39485C20.9086 7.95083 21.0223 8.5549 20.9976 9.16132C20.973 9.76774 20.8107 10.3606 20.523 10.895C21.0288 11.3059 21.4266 11.8342 21.6817 12.4339C21.9368 13.0336 22.0415 13.6866 21.9867 14.336C21.9318 14.9854 21.7192 15.6116 21.3672 16.16C21.0152 16.7085 20.5345 17.1627 19.967 17.483C20.0371 18.0252 19.9953 18.5761 19.8441 19.1015C19.693 19.627 19.4357 20.1158 19.0882 20.538C18.7407 20.9601 18.3104 21.3065 17.8238 21.5558C17.3372 21.8051 16.8046 21.9519 16.259 21.9873C15.7134 22.0227 15.1664 21.9459 14.6516 21.7616C14.1369 21.5773 13.6654 21.2894 13.2663 20.9158C12.8671 20.5421 12.5488 20.0906 12.331 19.5891C12.1133 19.0876 12.0006 18.5468 12 18V5Z" stroke="white" stroke-linecap="round" stroke-linejoin="round"/>
<path d="M15 13C14.1604 12.7047 13.4273 12.167 12.8933 11.455C12.3593 10.743 12.0485 9.88867 12 9C11.9515 9.88867 11.6407 10.743 11.1067 11.455C10.5727 12.167 9.83956 12.7047 9 13" stroke="#FFC900" stroke-linecap="round" stroke-linejoin="round"/>
<path d="M17.5986 6.5C17.8407 6.08059 17.9776 5.60882 17.9976 5.125" stroke="white" stroke-linecap="round" stroke-linejoin="round"/>
<path d="M6.00293 5.125C6.0227 5.60873 6.15926 6.0805 6.40093 6.5" stroke="white" stroke-linecap="round" stroke-linejoin="round"/>
<path d="M3.47656 10.896C3.6595 10.747 3.85527 10.6145 4.06156 10.5" stroke="white" stroke-linecap="round" stroke-linejoin="round"/>
<path d="M19.9385 10.5C20.1448 10.6145 20.3405 10.747 20.5235 10.896" stroke="white" stroke-linecap="round" stroke-linejoin="round"/>
<path d="M6.0002 18C5.31103 18.0003 4.63347 17.8226 4.0332 17.484" stroke="white" stroke-linecap="round" stroke-linejoin="round"/>
<path d="M19.967 17.484C19.3667 17.8226 18.6892 18.0003 18 18" stroke="white" stroke-linecap="round" stroke-linejoin="round"/>
</svg>
