<svg width="24" height="24" viewBox="0 0 24 24" fill="none" xmlns="http://www.w3.org/2000/svg">
<path d="M20 13C20 18 16.5 20.5 12.34 21.95C12.1222 22.0238 11.8855 22.0203 11.67 21.94C7.5 20.5 4 18 4 13V6C4 5.73478 4.10536 5.48043 4.29289 5.29289C4.48043 5.10536 4.73478 5 5 5C7 5 9.5 3.8 11.24 2.28C11.4519 2.099 11.7214 1.99955 12 1.99955C12.2786 1.99955 12.5481 2.099 12.76 2.28C14.51 3.81 17 5 19 5C19.2652 5 19.5196 5.10536 19.7071 5.29289C19.8946 5.48043 20 5.73478 20 6V13Z" stroke="white" stroke-width="1.2" stroke-linecap="round" stroke-linejoin="round"/>
<path d="M16.2352 12.5639C16.2352 15.387 14.3823 16.7985 12.1799 17.6172C12.0646 17.6589 11.9393 17.6569 11.8252 17.6115C9.61759 16.7985 7.76465 15.387 7.76465 12.5639V8.61163C7.76465 8.46189 7.82043 8.31828 7.91971 8.21239C8.01899 8.10651 8.15365 8.04702 8.29406 8.04702C9.35288 8.04702 10.6764 7.36949 11.5976 6.51128C11.7097 6.40909 11.8524 6.35294 11.9999 6.35294C12.1475 6.35294 12.2901 6.40909 12.4023 6.51128C13.3288 7.37514 14.647 8.04702 15.7058 8.04702C15.8462 8.04702 15.9809 8.10651 16.0802 8.21239C16.1795 8.31828 16.2352 8.46189 16.2352 8.61163V12.5639Z" stroke="#FFC900" stroke-width="1.2" stroke-linecap="round" stroke-linejoin="round"/>
</svg>
