<svg width="48" height="48" viewBox="0 0 48 48" fill="none" xmlns="http://www.w3.org/2000/svg">
<path d="M0 24C0 10.7452 10.7452 0 24 0C37.2548 0 48 10.7452 48 24C48 37.2548 37.2548 48 24 48C10.7452 48 0 37.2548 0 24Z" fill="#009BB6"/>
<path d="M32 25C32 30 28.5 32.5 24.34 33.95C24.1222 34.0238 23.8855 34.0203 23.67 33.94C19.5 32.5 16 30 16 25V18C16 17.7348 16.1054 17.4804 16.2929 17.2929C16.4804 17.1054 16.7348 17 17 17C19 17 21.5 15.8 23.24 14.28C23.4519 14.099 23.7214 13.9995 24 13.9995C24.2786 13.9995 24.5481 14.099 24.76 14.28C26.51 15.81 29 17 31 17C31.2652 17 31.5196 17.1054 31.7071 17.2929C31.8946 17.4804 32 17.7348 32 18V25Z" stroke="white" stroke-width="1.2" stroke-linecap="round" stroke-linejoin="round"/>
<path d="M28.2352 24.5639C28.2352 27.387 26.3823 28.7985 24.1799 29.6172C24.0646 29.6589 23.9393 29.6569 23.8252 29.6115C21.6176 28.7985 19.7646 27.387 19.7646 24.5639V20.6116C19.7646 20.4619 19.8204 20.3183 19.9197 20.2124C20.019 20.1065 20.1537 20.047 20.2941 20.047C21.3529 20.047 22.6764 19.3695 23.5976 18.5113C23.7097 18.4091 23.8524 18.3529 23.9999 18.3529C24.1475 18.3529 24.2901 18.4091 24.4023 18.5113C25.3288 19.3751 26.647 20.047 27.7058 20.047C27.8462 20.047 27.9809 20.1065 28.0802 20.2124C28.1795 20.3183 28.2352 20.4619 28.2352 20.6116V24.5639Z" stroke="#FFC900" stroke-width="1.2" stroke-linecap="round" stroke-linejoin="round"/>
</svg>
